HIERARCHY
ROOT Hips
{
  OFFSET 13.6774 106.653 -34.4427
  CHANNELS 6 Xposition Yposition Zposition Zrotation Xrotation Yrotation
  JOINT ToSpine
  {
    OFFSET -2.69724 7.43032 -0.144315
    CHANNELS 3 Zrotation Xrotation Yrotation
    JOINT Spine
    {
      OFFSET -0.0310711 10.7595 1.96963
      CHANNELS 3 Zrotation Xrotation Yrotation
      JOINT Spine1
      {
        OFFSET 19.9056 3.91189 0.764692
        CHANNELS 3 Zrotation Xrotation Yrotation
        JOINT Neck
        {
          OFFSET 25.9749 7.03908 -0.130764
          CHANNELS 3 Zrotation Xrotation Yrotation
          JOINT Head
          {
            OFFSET 9.52751 0.295786 -0.907742
            CHANNELS 3 Zrotation Xrotation Yrotation
            End Site
            {
              OFFSET 16.4037 0.713936 2.7358
            }
          }
        }
        JOINT LeftShoulder
        {
          OFFSET 17.7449 4.33886 11.7777
          CHANNELS 3 Zrotation Xrotation Yrotation
          JOINT LeftArm
          {
            OFFSET 0.911315 1.27913 9.80584
            CHANNELS 3 Zrotation Xrotation Yrotation
            JOINT LeftForeArm
            {
              OFFSET 28.6126 1.18197 -3.53199
              CHANNELS 3 Zrotation Xrotation Yrotation
              JOINT LeftHand
              {
                OFFSET 27.5088 0.0218783 0.327423
                CHANNELS 3 Zrotation Xrotation Yrotation
                End Site
                {
                  OFFSET 18.6038 -0.000155887 0.382096
                }
              }
            }
          }
        }
        JOINT RightShoulder
        {
          OFFSET 17.1009 2.89543 -12.2328
          CHANNELS 3 Zrotation Xrotation Yrotation
          JOINT RightArm
          {
            OFFSET 1.4228 0.178766 -10.211
            CHANNELS 3 Zrotation Xrotation Yrotation
            JOINT RightForeArm
            {
              OFFSET 28.733 1.87905 2.64907
              CHANNELS 3 Zrotation Xrotation Yrotation
              JOINT RightHand
              {
                OFFSET 27.4588 0.290562 -0.101845
                CHANNELS 3 Zrotation Xrotation Yrotation
                End Site
                {
                  OFFSET 17.8396 -0.255518 -0.000602873
                }
              }
            }
          }
        }
      }
    }
  }
  JOINT LeftUpLeg
  {
    OFFSET -5.61296 -2.22332 -10.2353
    CHANNELS 3 Zrotation Xrotation Yrotation
    JOINT LeftLeg
    {
      OFFSET 2.56703 -44.7417 -7.93097
      CHANNELS 3 Zrotation Xrotation Yrotation
      JOINT LeftFoot
      {
        OFFSET 3.16933 -46.5642 -3.96578
        CHANNELS 3 Zrotation Xrotation Yrotation
        JOINT LeftToeBase
        {
          OFFSET 0.346054 -6.02161 12.8035
          CHANNELS 3 Zrotation Xrotation Yrotation
          End Site
          {
            OFFSET 0.134235 -1.35082 5.13018
          }
        }
      }
    }
  }
  JOINT RightUpLeg
  {
    OFFSET -5.7928 -1.72406 10.6446
    CHANNELS 3 Zrotation Xrotation Yrotation
    JOINT RightLeg
    {
      OFFSET -2.57161 -44.7178 -7.85259
      CHANNELS 3 Zrotation Xrotation Yrotation
      JOINT RightFoot
      {
        OFFSET -3.10148 -46.5936 -4.03391
        CHANNELS 3 Zrotation Xrotation Yrotation
        JOINT RightToeBase
        {
          OFFSET -0.0828122 -6.13587 12.8035
          CHANNELS 3 Zrotation Xrotation Yrotation
          End Site
          {
            OFFSET -0.131328 -1.35082 5.13018
          }
        }
      }
    }
  }
}
MOTION
Frames: 19
Frame Time: 0.03333333333333333
0.0000 93.1000 0.0000 60.0000 -51.0000 -21.0000 -71.0000 0.0000 88.0000 73.0000 71.0000 5.0000 3.0000 19.0000 6.0000 -130.0000 32.0000 151.0000 -157.0000 76.0000 -175.0000 0.0000 -15.0000 -24.0000 -60.0000 38.0000 -141.0000 18.0000 -5.0000 -103.0000 0.0000 0.0000 0.0000 -2.0000 5.0000 41.0000 -133.0000 -18.0000 73.0000 10.0000 6.0000 122.0000 0.0000 0.0000 0.0000 -55.0000 4.0000 96.0000 -2.0000 34.0000 -3.0000 2.0000 -16.0000 -2.0000 2.0000 -8.0000 9.0000 -40.0000 -16.0000 79.0000 2.0000 25.0000 1.0000 -2.0000 7.0000 -1.0000 0.0000 -8.0000 3.0000 
0.0000 93.1000 0.0000 60.0000 -51.0000 -21.0000 -71.0000 0.0000 88.0000 72.0000 71.0000 5.0000 3.0000 19.0000 6.0000 -131.0000 32.0000 153.0000 -168.0000 76.0000 -166.0000 0.0000 -15.0000 -24.0000 -60.0000 37.0000 -140.0000 18.0000 -5.0000 -103.0000 0.0000 0.0000 0.0000 -2.0000 5.0000 40.0000 -132.0000 -19.0000 73.0000 10.0000 7.0000 122.0000 0.0000 0.0000 0.0000 -55.0000 4.0000 96.0000 -2.0000 34.0000 -2.0000 2.0000 -16.0000 -2.0000 2.0000 -8.0000 10.0000 -39.0000 -16.0000 79.0000 1.0000 26.0000 1.0000 -2.0000 6.0000 -1.0000 0.0000 -9.0000 2.0000 
0.0000 93.1000 0.0000 60.0000 -52.0000 -21.0000 -71.0000 0.0000 88.0000 74.0000 71.0000 4.0000 3.0000 19.0000 5.0000 -131.0000 31.0000 152.0000 -163.0000 75.0000 -170.0000 0.0000 -15.0000 -23.0000 -60.0000 36.0000 -140.0000 17.0000 -5.0000 -104.0000 0.0000 0.0000 0.0000 -2.0000 5.0000 41.0000 -132.0000 -19.0000 74.0000 11.0000 7.0000 122.0000 0.0000 0.0000 0.0000 -56.0000 4.0000 96.0000 -2.0000 34.0000 -1.0000 2.0000 -17.0000 -2.0000 2.0000 -8.0000 9.0000 -39.0000 -16.0000 79.0000 1.0000 28.0000 2.0000 -3.0000 6.0000 0.0000 0.0000 -9.0000 1.0000 
0.0000 93.1000 0.0000 60.0000 -52.0000 -21.0000 -71.0000 0.0000 88.0000 73.0000 70.0000 5.0000 4.0000 19.0000 5.0000 -131.0000 31.0000 152.0000 -164.0000 75.0000 -169.0000 0.0000 -15.0000 -23.0000 -60.0000 37.0000 -141.0000 17.0000 -5.0000 -103.0000 0.0000 0.0000 0.0000 -2.0000 5.0000 41.0000 -131.0000 -19.0000 75.0000 11.0000 7.0000 122.0000 0.0000 0.0000 0.0000 -56.0000 4.0000 96.0000 -2.0000 34.0000 -2.0000 1.0000 -17.0000 -2.0000 2.0000 -8.0000 11.0000 -38.0000 -16.0000 80.0000 1.0000 29.0000 2.0000 -3.0000 5.0000 0.0000 0.0000 -9.0000 1.0000 
0.0000 93.1000 0.0000 60.0000 -53.0000 -22.0000 -71.0000 0.0000 88.0000 75.0000 71.0000 4.0000 3.0000 19.0000 5.0000 -132.0000 31.0000 154.0000 -166.0000 75.0000 -166.0000 0.0000 -15.0000 -23.0000 -59.0000 37.0000 -141.0000 17.0000 -5.0000 -103.0000 0.0000 0.0000 0.0000 -2.0000 5.0000 40.0000 -131.0000 -20.0000 74.0000 10.0000 7.0000 122.0000 0.0000 0.0000 0.0000 -56.0000 4.0000 97.0000 -2.0000 35.0000 -2.0000 1.0000 -18.0000 -2.0000 2.0000 -8.0000 12.0000 -37.0000 -16.0000 81.0000 1.0000 31.0000 2.0000 -4.0000 4.0000 0.0000 0.0000 -9.0000 1.0000 
0.0000 93.1000 0.0000 59.0000 -54.0000 -24.0000 -71.0000 0.0000 88.0000 76.0000 70.0000 3.0000 2.0000 19.0000 4.0000 -132.0000 30.0000 154.0000 -165.0000 74.0000 -167.0000 0.0000 -15.0000 -23.0000 -59.0000 37.0000 -141.0000 16.0000 -4.0000 -103.0000 0.0000 0.0000 0.0000 -2.0000 6.0000 40.0000 -131.0000 -20.0000 75.0000 12.0000 8.0000 122.0000 0.0000 0.0000 0.0000 -56.0000 4.0000 97.0000 -2.0000 35.0000 -2.0000 1.0000 -19.0000 -2.0000 2.0000 -8.0000 13.0000 -35.0000 -15.0000 83.0000 1.0000 34.0000 3.0000 -4.0000 3.0000 0.0000 1.0000 -9.0000 -3.0000 
0.0000 93.1000 0.0000 57.0000 -55.0000 -25.0000 -71.0000 0.0000 88.0000 77.0000 70.0000 3.0000 2.0000 19.0000 4.0000 -133.0000 30.0000 155.0000 -165.0000 73.0000 -167.0000 0.0000 -14.0000 -23.0000 -59.0000 36.0000 -141.0000 16.0000 -4.0000 -102.0000 0.0000 0.0000 0.0000 -2.0000 6.0000 39.0000 -131.0000 -21.0000 75.0000 13.0000 8.0000 122.0000 0.0000 0.0000 0.0000 -55.0000 4.0000 98.0000 -2.0000 37.0000 -2.0000 0.0000 -20.0000 -2.0000 2.0000 -9.0000 15.0000 -32.0000 -14.0000 85.0000 2.0000 37.0000 4.0000 -4.0000 3.0000 0.0000 1.0000 -10.0000 -6.0000 
0.0000 93.1000 0.0000 56.0000 -57.0000 -27.0000 -71.0000 0.0000 88.0000 83.0000 71.0000 -1.0000 1.0000 19.0000 4.0000 -134.0000 30.0000 157.0000 -165.0000 73.0000 -166.0000 0.0000 -15.0000 -23.0000 -59.0000 37.0000 -141.0000 15.0000 -4.0000 -102.0000 0.0000 0.0000 0.0000 -2.0000 6.0000 39.0000 -129.0000 -22.0000 77.0000 13.0000 9.0000 122.0000 0.0000 0.0000 0.0000 -54.0000 5.0000 99.0000 -3.0000 41.0000 -1.0000 0.0000 -22.0000 -2.0000 1.0000 -8.0000 16.0000 -29.0000 -13.0000 86.0000 2.0000 42.0000 4.0000 -3.0000 2.0000 0.0000 1.0000 -9.0000 -6.0000 
0.0000 93.1000 0.0000 54.0000 -60.0000 -29.0000 -71.0000 0.0000 88.0000 88.0000 71.0000 -6.0000 0.0000 19.0000 5.0000 -136.0000 30.0000 160.0000 -161.0000 72.0000 -169.0000 0.0000 -16.0000 -23.0000 -63.0000 37.0000 -141.0000 13.0000 -3.0000 -101.0000 0.0000 0.0000 0.0000 -2.0000 6.0000 39.0000 -126.0000 -23.0000 80.0000 14.0000 9.0000 122.0000 0.0000 0.0000 0.0000 -54.0000 6.0000 100.0000 -3.0000 46.0000 -2.0000 0.0000 -24.0000 -2.0000 3.0000 -11.0000 18.0000 -25.0000 -12.0000 88.0000 3.0000 48.0000 4.0000 -3.0000 0.0000 0.0000 1.0000 -9.0000 -6.0000 
0.0000 93.1000 0.0000 53.0000 -62.0000 -31.0000 -71.0000 0.0000 88.0000 94.0000 71.0000 -12.0000 -1.0000 18.0000 7.0000 -139.0000 29.0000 164.0000 -159.0000 71.0000 -169.0000 0.0000 -17.0000 -24.0000 -70.0000 37.0000 -141.0000 11.0000 -2.0000 -98.0000 0.0000 0.0000 0.0000 -2.0000 6.0000 38.0000 -119.0000 -27.0000 84.0000 10.0000 6.0000 121.0000 0.0000 0.0000 0.0000 -53.0000 6.0000 100.0000 -4.0000 51.0000 -3.0000 0.0000 -24.0000 -2.0000 5.0000 -15.0000 22.0000 -21.0000 -12.0000 90.0000 3.0000 50.0000 6.0000 -4.0000 0.0000 0.0000 1.0000 -13.0000 -5.0000 
0.0000 93.1000 0.0000 52.0000 -64.0000 -33.0000 -71.0000 0.0000 88.0000 99.0000 70.0000 -18.0000 -3.0000 17.0000 10.0000 -142.0000 29.0000 169.0000 -158.0000 69.0000 -171.0000 0.0000 -17.0000 -22.0000 -81.0000 38.0000 -141.0000 11.0000 -2.0000 -95.0000 0.0000 0.0000 0.0000 -2.0000 6.0000 38.0000 -109.0000 -31.0000 88.0000 3.0000 1.0000 121.0000 0.0000 0.0000 0.0000 -52.0000 6.0000 99.0000 -5.0000 56.0000 -4.0000 0.0000 -25.0000 -3.0000 7.0000 -18.0000 23.0000 -19.0000 -11.0000 92.0000 3.0000 49.0000 5.0000 -3.0000 0.0000 0.0000 1.0000 -13.0000 -4.0000 
0.0000 93.1000 0.0000 50.0000 -65.0000 -36.0000 -71.0000 0.0000 88.0000 104.0000 68.0000 -24.0000 -4.0000 15.0000 13.0000 -148.0000 27.0000 174.0000 -159.0000 67.0000 -170.0000 0.0000 -16.0000 -19.0000 -95.0000 38.0000 -139.0000 8.0000 -1.0000 -93.0000 0.0000 0.0000 0.0000 -2.0000 6.0000 37.0000 -99.0000 -37.0000 88.0000 -11.0000 -6.0000 118.0000 0.0000 0.0000 0.0000 -50.0000 7.0000 99.0000 -7.0000 61.0000 -4.0000 0.0000 -27.0000 -3.0000 9.0000 -19.0000 25.0000 -16.0000 -9.0000 97.0000 2.0000 46.0000 4.0000 0.0000 3.0000 -1.0000 1.0000 -11.0000 -7.0000 
0.0000 93.1000 0.0000 48.0000 -66.0000 -39.0000 -71.0000 0.0000 88.0000 106.0000 67.0000 -26.0000 -5.0000 14.0000 14.0000 -154.0000 25.0000 177.0000 -158.0000 65.0000 -172.0000 1.0000 -12.0000 -12.0000 -110.0000 40.0000 -133.0000 4.0000 -1.0000 -94.0000 0.0000 0.0000 0.0000 -2.0000 6.0000 41.0000 -93.0000 -40.0000 83.0000 -25.0000 -10.0000 110.0000 0.0000 0.0000 0.0000 -51.0000 7.0000 101.0000 -7.0000 63.0000 -3.0000 0.0000 -31.0000 -3.0000 7.0000 -18.0000 25.0000 -14.0000 -7.0000 104.0000 2.0000 45.0000 3.0000 1.0000 8.0000 -1.0000 2.0000 -8.0000 -12.0000 
0.0000 93.1000 0.0000 49.0000 -63.0000 -37.0000 -71.0000 0.0000 88.0000 100.0000 66.0000 -20.0000 -3.0000 11.0000 14.0000 -161.0000 23.0000 -179.0000 -158.0000 63.0000 -176.0000 0.0000 -8.0000 -7.0000 -122.0000 37.0000 -122.0000 1.0000 -1.0000 -97.0000 0.0000 0.0000 0.0000 -2.0000 6.0000 44.0000 -95.0000 -41.0000 72.0000 -41.0000 -9.0000 99.0000 0.0000 0.0000 0.0000 -51.0000 7.0000 100.0000 -7.0000 62.0000 -6.0000 0.0000 -31.0000 -3.0000 8.0000 -18.0000 25.0000 -15.0000 -7.0000 108.0000 3.0000 48.0000 6.0000 0.0000 11.0000 -1.0000 2.0000 -16.0000 -11.0000 
0.0000 93.1000 0.0000 56.0000 -58.0000 -31.0000 -71.0000 0.0000 88.0000 96.0000 66.0000 -16.0000 -4.0000 10.0000 16.0000 -167.0000 23.0000 -177.0000 -153.0000 62.0000 177.0000 0.0000 -5.0000 -7.0000 -125.0000 31.0000 -117.0000 -3.0000 0.0000 -101.0000 0.0000 0.0000 0.0000 -2.0000 5.0000 46.0000 -105.0000 -38.0000 56.0000 -60.0000 -5.0000 92.0000 0.0000 0.0000 0.0000 -54.0000 8.0000 98.0000 -7.0000 58.0000 -10.0000 -1.0000 -28.0000 -3.0000 9.0000 -19.0000 24.0000 -19.0000 -13.0000 106.0000 1.0000 49.0000 -7.0000 2.0000 0.0000 -1.0000 0.0000 -13.0000 19.0000 
0.0000 93.1000 0.0000 61.0000 -52.0000 -24.0000 -71.0000 0.0000 88.0000 98.0000 68.0000 -13.0000 -6.0000 13.0000 14.0000 -173.0000 24.0000 -173.0000 -147.0000 63.0000 168.0000 1.0000 -4.0000 -9.0000 -117.0000 31.0000 -119.0000 -5.0000 0.0000 -103.0000 0.0000 0.0000 0.0000 -3.0000 6.0000 46.0000 -118.0000 -29.0000 40.0000 -69.0000 -6.0000 91.0000 0.0000 0.0000 0.0000 -57.0000 8.0000 93.0000 -4.0000 49.0000 -9.0000 -2.0000 -20.0000 -2.0000 8.0000 -19.0000 19.0000 -29.0000 -17.0000 99.0000 2.0000 42.0000 2.0000 7.0000 -1.0000 -1.0000 1.0000 -14.0000 -4.0000 
0.0000 93.1000 0.0000 67.0000 -40.0000 -16.0000 -71.0000 0.0000 88.0000 85.0000 69.0000 1.0000 -4.0000 15.0000 13.0000 -174.0000 26.0000 -172.0000 -151.0000 66.0000 172.0000 1.0000 -5.0000 -12.0000 -108.0000 29.0000 -125.0000 -2.0000 0.0000 -102.0000 0.0000 0.0000 0.0000 -2.0000 6.0000 40.0000 -128.0000 -23.0000 42.0000 -68.0000 -12.0000 94.0000 0.0000 0.0000 0.0000 -57.0000 8.0000 85.0000 -4.0000 44.0000 -8.0000 -5.0000 -11.0000 -1.0000 7.0000 -17.0000 14.0000 -39.0000 -22.0000 88.0000 0.0000 37.0000 -6.0000 3.0000 1.0000 -1.0000 1.0000 -15.0000 11.0000 
0.0000 93.1000 0.0000 72.0000 -34.0000 -11.0000 -71.0000 0.0000 88.0000 95.0000 71.0000 -7.0000 -8.0000 18.0000 11.0000 -168.0000 29.0000 -174.0000 -159.0000 69.0000 179.0000 1.0000 -6.0000 -14.0000 -101.0000 24.0000 -129.0000 -3.0000 0.0000 -100.0000 0.0000 0.0000 0.0000 -1.0000 5.0000 28.0000 -139.0000 -24.0000 59.0000 -62.0000 -14.0000 96.0000 0.0000 0.0000 0.0000 -57.0000 11.0000 89.0000 -3.0000 41.0000 -7.0000 -7.0000 -3.0000 0.0000 3.0000 -9.0000 7.0000 -50.0000 -23.0000 78.0000 -2.0000 31.0000 -2.0000 5.0000 2.0000 -1.0000 1.0000 -14.0000 4.0000 
0.0000 93.1000 0.0000 72.0000 -33.0000 -14.0000 -71.0000 0.0000 88.0000 109.0000 71.0000 -16.0000 -12.0000 23.0000 1.0000 -158.0000 29.0000 -173.0000 -163.0000 69.0000 -174.0000 1.0000 -7.0000 -14.0000 -97.0000 18.0000 -122.0000 -5.0000 0.0000 -102.0000 0.0000 0.0000 0.0000 -1.0000 3.0000 19.0000 -142.0000 -35.0000 94.0000 -58.0000 -6.0000 93.0000 0.0000 0.0000 0.0000 -59.0000 11.0000 98.0000 -3.0000 37.0000 -8.0000 -8.0000 2.0000 1.0000 1.0000 -3.0000 0.0000 -50.0000 -23.0000 78.0000 -2.0000 30.0000 3.0000 2.0000 3.0000 -1.0000 1.0000 -14.0000 -6.0000 
